<svg width="41" height="23" viewBox="0 0 41 23" fill="none" xmlns="http://www.w3.org/2000/svg">
<path d="M29.719 1.04737e-06C23.5327 1.04737e-06 18.4974 4.92857 18.4974 11.5H22.5098C22.5098 7.06215 25.5139 3.88312 29.719 3.88312C33.9241 3.88312 37.2801 7.46753 37.2801 11.9054V23H41V11.9054C41 5.33395 35.9054 1.04737e-06 29.719 1.04737e-06Z" fill="#1F2937"/>
<path d="M11.2549 0C5.02017 0 0 5.13393 0 11.5C0 17.6607 5.02017 23 11.2549 23C17.4896 23 22.5098 17.6607 22.5098 11.5C22.5098 5.13393 17.4896 0 11.2549 0ZM9.64706 8.21428C14.0657 14.9865 18.2004 7.93828 18.4974 11.5C19.238 15.6621 15.4654 18.8929 11.2549 18.8929C7.12541 18.8929 4.01961 15.7304 4.01961 11.5C4.01961 7.31071 8.03922 5.75 9.64706 8.21428Z" fill="#047857"/>
<path d="M0 11.5C-1.29212e-07 13.0102 0.291116 14.5056 0.856728 15.9009C1.42234 17.2961 2.25137 18.5638 3.29648 19.6317C4.3416 20.6996 5.58233 21.5467 6.94784 22.1246C8.31334 22.7025 9.77689 23 11.2549 23C12.7329 23 14.1965 22.7025 15.562 22.1246C16.9275 21.5467 18.1682 20.6996 19.2133 19.6317C20.2584 18.5639 21.0875 17.2961 21.6531 15.9009C22.2187 14.5056 22.5098 13.0102 22.5098 11.5H18.4974C18.5841 12.8278 18.3265 13.4386 17.9617 14.3386C17.5969 15.2385 17.0622 16.0562 16.3881 16.745C15.714 17.4337 14.9137 17.9801 14.033 18.3529C13.1522 18.7256 12.2082 18.9175 11.2549 18.9175C10.3016 18.9175 9.3576 18.7256 8.47684 18.3529C7.59609 17.9801 6.79582 17.4337 6.12172 16.745C5.44762 16.0562 4.9129 15.2385 4.54808 14.3386C4.18326 13.4386 4.01961 12.4741 4.01961 11.5H0Z" fill="#1F2937"/>
</svg>
