<svg width="174" height="23" viewBox="0 0 174 23" fill="none" xmlns="http://www.w3.org/2000/svg">
<path d="M29.719 1.04737e-06C23.5327 1.04737e-06 18.4974 4.92857 18.4974 11.5H22.5098C22.5098 7.06215 25.5139 3.88312 29.719 3.88312C33.9241 3.88312 37.2801 7.46753 37.2801 11.9054V23H41V11.9054C41 5.33395 35.9054 1.04737e-06 29.719 1.04737e-06Z" fill="#1F2937"/>
<path d="M11.2549 0C5.02017 0 0 5.13393 0 11.5C0 17.6607 5.02017 23 11.2549 23C17.4896 23 22.5098 17.6607 22.5098 11.5C22.5098 5.13393 17.4896 0 11.2549 0ZM9.64706 8.21428C14.0657 14.9865 18.2004 7.93828 18.4974 11.5C19.238 15.6621 15.4654 18.8929 11.2549 18.8929C7.12541 18.8929 4.01961 15.7304 4.01961 11.5C4.01961 7.31071 8.03922 5.75 9.64706 8.21428Z" fill="#047857"/>
<path d="M0 11.5C-1.29212e-07 13.0102 0.291116 14.5056 0.856728 15.9009C1.42234 17.2961 2.25137 18.5638 3.29648 19.6317C4.3416 20.6996 5.58233 21.5467 6.94784 22.1246C8.31334 22.7025 9.77689 23 11.2549 23C12.7329 23 14.1965 22.7025 15.562 22.1246C16.9275 21.5467 18.1682 20.6996 19.2133 19.6317C20.2584 18.5639 21.0875 17.2961 21.6531 15.9009C22.2187 14.5056 22.5098 13.0102 22.5098 11.5H18.4974C18.5841 12.8278 18.3265 13.4386 17.9617 14.3386C17.5969 15.2385 17.0622 16.0562 16.3881 16.745C15.714 17.4337 14.9137 17.9801 14.033 18.3529C13.1522 18.7256 12.2082 18.9175 11.2549 18.9175C10.3016 18.9175 9.3576 18.7256 8.47684 18.3529C7.59609 17.9801 6.79582 17.4337 6.12172 16.745C5.44762 16.0562 4.9129 15.2385 4.54808 14.3386C4.18326 13.4386 4.01961 12.4741 4.01961 11.5H0Z" fill="#1F2937"/>
<path d="M55.5 4C50.7914 4 47 7.82194 47 12.5612C47 17.1475 50.7914 21 55.5 21C60.2086 21 64 17.1475 64 12.5612C64 7.82194 60.2086 4 55.5 4ZM55.4694 6.81295C58.6493 6.81295 61.1565 9.35072 61.1565 12.4694C61.1565 15.6187 58.6493 18.1871 55.4694 18.1871C52.3507 18.1871 49.8129 15.6187 49.8129 12.4694C49.8129 9.35072 52.3507 6.81295 55.4694 6.81295Z" fill="#1F2937"/>
<path d="M76.5 4C71.8387 4 68 7.94249 68 12.7996V21H70.8029V12.7996C70.8029 9.51948 73.3315 6.87013 76.5 6.87013C79.6685 6.87013 82.1971 9.51948 82.1971 12.7996V21H85V12.7996C85 7.94249 81.1613 4 76.5 4Z" fill="#1F2937"/>
<path d="M118.5 4C113.839 4 110 7.94249 110 12.7996V21H112.803V12.7996C112.803 9.51948 115.332 6.87013 118.5 6.87013C121.668 6.87013 124.197 9.51948 124.197 12.7996V21H127V12.7996C127 7.94249 123.161 4 118.5 4Z" fill="#1F2937"/>
<path d="M95.6734 13.6465H106V12.3926C105.969 10.0072 104.961 7.89703 103.373 6.36791C99.9812 3.12618 94.6346 3.21792 91.3656 6.61257C88.127 9.97663 88.2187 15.3591 91.61 18.6315C95.0013 21.9038 100.348 21.7509 103.586 18.3868L101.601 16.4601C99.4008 18.7232 95.7956 18.7844 93.5348 16.5824C91.2739 14.4111 91.1823 10.8024 93.382 8.53926C94.6346 7.22422 96.3761 6.64315 98.0565 6.82665C100.409 7.07131 102.334 8.78392 102.914 10.9859H95.6734V13.6465Z" fill="#1F2937"/>
<path d="M149 20.5414L147.46 14.9155C147.671 14.1817 147.792 13.3867 147.792 12.5612C147.792 7.82194 144.047 4 139.396 4C134.745 4 131 7.82194 131 12.5612C131 17.1475 134.745 21 139.396 21C141.903 21 144.138 19.8993 145.648 18.1565L146.312 20.5414H149ZM139.366 18.1871C136.285 18.1871 133.779 15.6187 133.779 12.4694C133.779 9.35072 136.285 6.81295 139.366 6.81295C142.507 6.81295 144.983 9.35072 144.983 12.4694C144.983 15.6187 142.507 18.1871 139.366 18.1871Z" fill="#1F2937"/>
<path d="M164.052 4L158.713 18.1775H158.32L152.948 4H150L156.355 21H160.613L167 4H164.052Z" fill="#1F2937"/>
<path d="M174 1.97059C174 3 173.121 3.91176 172 3.91176C170.879 3.91176 170 3 170 1.97059C170 0.882354 170.879 0 172 0C173.121 0 174 0.882354 174 1.97059ZM170.606 21H173.394V6.02941H170.606V21Z" fill="#1F2937"/>
</svg>
